<svg xmlns="http://www.w3.org/2000/svg" width="733.58" height="302.629" viewBox="0 0 687.73116 283.71514" id="svg8019"><g id="layer1"><g id="g9132" transform="translate(-210.934 -227.44) scale(2.73527)"><g id="g7145" transform="matrix(.46552 0 0 .46552 403.983 -386.153)" stroke="#ff8e2a" fill="none" stroke-width="16" stroke-linecap="round" stroke-linejoin="round"><g id="g7147"><path id="path7149" d="M-684.314 924.905V842.42a22.72 22.72 0 0 1 22.77-22.77h14.233" color="#000" overflow="visible" transform="translate(-2 247.45)"/><path id="path7151" d="M-692.043 869.42h39.41" transform="translate(-2 247.45)"/></g><path d="M-572.936 1066.722v105.634" id="path7153" color="#000" overflow="visible"/><path id="path7156" d="M-545.506 1172.356h25.072c13.248 0 23.914-10.61 23.914-23.79v-4.758c0-13.18-10.666-23.872-23.914-23.79-15.004.094 8.102.187-6.903.28-13.248 0-23.914-10.61-23.914-23.79v-4.757c0-13.18 10.666-23.79 23.914-23.79h25.072" color="#000" overflow="visible"/><rect id="rect7158" width="50.704" height="74.239" x="-476.834" y="1098.117" ry="14.828" color="#000" overflow="visible"/><path id="path7160" d="M-629.625 1067.099v82.486a22.72 22.72 0 0 0 22.77 22.771h14.233" color="#000" overflow="visible"/><path d="M-405.333 1067.099v82.486a22.72 22.72 0 0 0 22.77 22.771h14.233" id="path7162" color="#000" overflow="visible"/></g><g id="g7164" fill="#ff8e2a" color="#000" stroke-width="2.591"><path id="path7166" d="M-190.885 549.558l52.069 51.756 30.52-28.21-25.505-24.151-17.032 16.577 11.892 11.398 14.43-10.96 1.24 1.247-12.284 12.798c-1.843 1.847-3.857 2.448-6.231.426l-12.368-11.94c-1.48-1.855-1.807-3.676-.582-5.452 0 0 7.485-9.965 17.762-18.956 3.204-2.347 5.99-1.766 8.518.603l27.18 23.668c2.509 2.877 1.973 6.48-.65 9.164l-31.258 33.346c-2.954 3.423-9.812 3.205-12.789-.103l-54.505-52.126z" overflow="visible" transform="translate(377.577 -127.908) scale(.49202)"/><path d="M-219.233 519.19l-52.069-51.756-30.52 28.21 25.506 24.151 17.031-16.577-11.892-11.398-14.43 10.96-1.239-1.247 12.283-12.798c1.843-1.847 3.857-2.448 6.232-.426l12.367 11.94c1.48 1.855 1.807 3.676.582 5.452 0 0-7.484 9.965-17.762 18.955-3.204 2.348-5.989 1.767-8.518-.602l-27.18-23.669c-2.509-2.876-1.972-6.479.65-9.163l31.258-33.346c2.954-3.424 9.812-3.205 12.789.103l54.505 52.126z" id="path7168" overflow="visible" transform="translate(377.577 -127.908) scale(.49202)"/><path d="M-189.874 520.2l51.755-52.069-28.21-30.52-24.151 25.505 16.577 17.032 11.398-11.892-10.96-14.43 1.247-1.24 12.798 12.284c1.847 1.843 2.448 3.857.426 6.231l-11.94 12.368c-1.855 1.48-3.676 1.807-5.452.582 0 0-9.965-7.485-18.955-17.762-2.347-3.204-1.767-5.99.602-8.518l23.669-27.18c2.876-2.509 6.479-1.973 9.163.65l33.346 31.258c3.424 2.954 3.205 9.812-.103 12.789l-52.126 54.505z" id="path7171" overflow="visible" transform="translate(377.577 -127.908) scale(.49202)"/><path id="path7174" d="M-220.243 548.548L-272 600.617l28.21 30.52 24.151-25.506-16.577-17.031-11.398 11.892 10.96 14.43-1.247 1.239-12.798-12.283c-1.847-1.843-2.448-3.857-.426-6.232l11.94-12.367c1.855-1.48 3.676-1.807 5.452-.582 0 0 9.965 7.485 18.956 17.762 2.347 3.204 1.766 5.989-.603 8.518l-23.668 27.18c-2.877 2.509-6.48 1.973-9.164-.65l-33.346-31.258c-3.423-2.954-3.204-9.812.103-12.789l52.126-54.505z" overflow="visible" transform="translate(377.577 -127.908) scale(.49202)"/><g transform="scale(.5523) rotate(13.32 1154.463 3454.679)" id="g7176"><path id="path7178" d="M-212.374 517.75l15.319 45.991s10.853-5.007 11.417 1.796c.563 6.804-14.998 6.053-14.998 6.053l-14.636-53.474z" overflow="visible"/><ellipse ry="7.029" rx="4.8" cy="505.676" cx="-148.457" transform="rotate(-78.178 -154.516 551.147)" id="path7180" overflow="visible"/><ellipse ry="7.029" rx="4.8" cy="505.676" cx="-148.457" id="path7182" transform="rotate(-78.178 -143.426 551.994)" overflow="visible"/><path d="M-229.744 444.998l-15.318-45.991s-10.854 5.007-11.417-1.796c-.564-6.804 14.998-6.053 14.998-6.053l14.635 53.474z" id="path7184" overflow="visible"/><ellipse ry="7.029" rx="4.8" cy="505.676" cx="-148.457" id="path7186" transform="rotate(101.822 -164.378 427.317)" overflow="visible"/><ellipse ry="7.029" rx="4.8" cy="505.676" cx="-148.457" transform="rotate(101.822 -163.69 418.308)" id="path7188" overflow="visible"/><path d="M-184.683 472.689l45.991-15.318s-5.007-10.854 1.796-11.418c6.804-.563 6.053 14.999 6.053 14.999l-53.474 14.635z" id="path7190" overflow="visible"/><ellipse ry="7.029" rx="4.8" cy="505.676" cx="-148.457" id="path7192" transform="rotate(-168.178 -159.958 482.822)" overflow="visible"/><ellipse ry="7.029" rx="4.8" cy="505.676" cx="-148.457" transform="rotate(-168.178 -154.607 478.23)" id="path7194" overflow="visible"/><path id="path7196" d="M-257.435 490.06l-45.991 15.317s5.007 10.854-1.796 11.417c-6.804.564-6.053-14.998-6.053-14.998l53.474-14.635z" overflow="visible"/><ellipse ry="7.029" rx="4.8" cy="505.676" cx="-148.457" transform="rotate(11.822 -207.074 -108.79)" id="path7198" overflow="visible"/><ellipse ry="7.029" rx="4.8" cy="505.676" cx="-148.457" id="path7200" transform="rotate(11.822 -251.42 -160.475)" overflow="visible"/></g></g><circle r="26.077" cy="135.013" cx="276.685" id="path7202" color="#000" overflow="visible" fill="#ff8e2a" stroke="#ff8e2a" stroke-width="2.793"/><path d="M263.429 115.372c-.374.016-.703.109-.953.314-.14 1.344.334 3.068 1.36 4.01-.089-.114-.195-.322-.343-.664-.455-.774-1.274-4.207.306-2.55.926 1.944 1.227 4.318 2.665 6.042 1.096 1.8 3.177 1.916 4.932 2.366 1.524.74 2.014 2.928 3.656 3.364 1.168 1.519-.298 3.42-.935 4.888-1.278 2.264 1.345 3.639 2.175 5.415 1.68 2.319 3.273 5.39 2.008 8.307-.748 2.111-.929 4.443-1.462 6.644-.237 1.561-.574 4.841 1.11 5.147.338-1.688.204-3.505 1.564-4.777 1.338-2.545 3.944-4.133 5.923-5.933.913-1.084 2.681-3.546 4.433-4.75.776-1.314.544-3.548 1.97-4.85 1.094-1.157 1.637-3.84-.462-4.159-2.797-1.115-5.098-3.232-6.96-5.627-2.014-1.086-3.28-1.382-5.428-2.074-.131-.042-.31 1.129-.703 1.125-.535-.005.124-1.498-1.04-1.454-.195.642-1.308 1.657-2.073 1.876-.295-.482-1.344-1.493-1.268-2.31-.035-1.647-2.137-1.687-1.332-3.253-.481-1.38-2.413 2.026-3.202-.305-.467-2.024-.548-5.455-2.415-5.84-.9-.356-2.406-.997-3.526-.952zm11.559 5.691c.185.058 1.01-.194 1.92-.18.857.015 2.288.72 2.547.495-.404-1.34-3.254-1.093-3.2-1.087-.431.362-1.575.657-1.267.772zm9.382 2.547c-.071.126-.433.157-.434-.1.143-.25.42-.036.434.1zm-1.722-.497c-1.618-.05-.554-.874-1.413-.855-.602.012-.432.645-1.476.548.96.452 1.025.34 1.694.698.949-.056 1.531-.043 1.196-.39z" id="path7204" font-size="12" fill="#fff" stroke="#fff" stroke-width=".466"/></g></g></svg>