<svg xmlns="http://www.w3.org/2000/svg" width="302.63" height="302.63" viewBox="0 0 283.71516 283.71517" id="svg8019"><g id="layer1"><g transform="translate(324.054 -1525.674) scale(1.27332)" id="g7145" stroke="#ff8e2a" fill="none" stroke-width="16" stroke-linecap="round" stroke-linejoin="round"><g id="g7147"><path d="M-684.314 924.905V842.42a22.72 22.72 0 0 1 22.77-22.77h14.233" id="path7149" color="#000" overflow="visible" transform="translate(-2 247.45)"/><path d="M-692.043 869.42h39.41" id="path7151" transform="translate(-2 247.45)"/></g><path id="path7153" d="M-572.936 1066.722v105.634" color="#000" overflow="visible"/><path d="M-545.506 1172.356h25.072c13.248 0 23.914-10.61 23.914-23.79v-4.758c0-13.18-10.666-23.872-23.914-23.79-15.004.094 8.102.187-6.903.28-13.248 0-23.914-10.61-23.914-23.79v-4.757c0-13.18 10.666-23.79 23.914-23.79h25.072" id="path7156" color="#000" overflow="visible"/><rect ry="14.828" y="1098.117" x="-476.834" height="74.239" width="50.704" id="rect7158" color="#000" overflow="visible"/><path d="M-629.625 1067.099v82.486a22.72 22.72 0 0 0 22.77 22.771h14.233" id="path7160" color="#000" overflow="visible"/><path id="path7162" d="M-405.333 1067.099v82.486a22.72 22.72 0 0 0 22.77 22.771h14.233" color="#000" overflow="visible"/></g><g id="g8340" transform="translate(-432.606 -348.735)"><g id="g7164" fill="#ff8e2a" color="#000" stroke-width="2.591"><path id="path7166" d="M-190.885 549.558l52.069 51.756 30.52-28.21-25.505-24.151-17.032 16.577 11.892 11.398 14.43-10.96 1.24 1.247-12.284 12.798c-1.843 1.847-3.857 2.448-6.231.426l-12.368-11.94c-1.48-1.855-1.807-3.676-.582-5.452 0 0 7.485-9.965 17.762-18.956 3.204-2.347 5.99-1.766 8.518.603l27.18 23.668c2.509 2.877 1.973 6.48-.65 9.164l-31.258 33.346c-2.954 3.423-9.812 3.205-12.789-.103l-54.505-52.126z" overflow="visible" transform="translate(850.432 -228.568) scale(1.3458)"/><path d="M-219.233 519.19l-52.069-51.756-30.52 28.21 25.506 24.151 17.031-16.577-11.892-11.398-14.43 10.96-1.239-1.247 12.283-12.798c1.843-1.847 3.857-2.448 6.232-.426l12.367 11.94c1.48 1.855 1.807 3.676.582 5.452 0 0-7.484 9.965-17.762 18.955-3.204 2.348-5.989 1.767-8.518-.602l-27.18-23.669c-2.509-2.876-1.972-6.479.65-9.163l31.258-33.346c2.954-3.424 9.812-3.205 12.789.103l54.505 52.126z" id="path7168" overflow="visible" transform="translate(850.432 -228.568) scale(1.3458)"/><path d="M-189.874 520.2l51.755-52.069-28.21-30.52-24.151 25.505 16.577 17.032 11.398-11.892-10.96-14.43 1.247-1.24 12.798 12.284c1.847 1.843 2.448 3.857.426 6.231l-11.94 12.368c-1.855 1.48-3.676 1.807-5.452.582 0 0-9.965-7.485-18.955-17.762-2.347-3.204-1.767-5.99.602-8.518l23.669-27.18c2.876-2.509 6.479-1.973 9.163.65l33.346 31.258c3.424 2.954 3.205 9.812-.103 12.789l-52.126 54.505z" id="path7171" overflow="visible" transform="translate(850.432 -228.568) scale(1.3458)"/><path id="path7174" d="M-220.243 548.548L-272 600.617l28.21 30.52 24.151-25.506-16.577-17.031-11.398 11.892 10.96 14.43-1.247 1.239-12.798-12.283c-1.847-1.843-2.448-3.857-.426-6.232l11.94-12.367c1.855-1.48 3.676-1.807 5.452-.582 0 0 9.965 7.485 18.956 17.762 2.347 3.204 1.766 5.989-.603 8.518l-23.668 27.18c-2.877 2.509-6.48 1.973-9.164-.65l-33.346-31.258c-3.423-2.954-3.204-9.812.103-12.789l52.126-54.505z" overflow="visible" transform="translate(850.432 -228.568) scale(1.3458)"/><g transform="scale(1.5107) rotate(13.32 750.302 2977.97)" id="g7176"><path id="path7178" d="M-212.374 517.75l15.319 45.991s10.853-5.007 11.417 1.796c.563 6.804-14.998 6.053-14.998 6.053l-14.636-53.474z" overflow="visible"/><ellipse ry="7.029" rx="4.8" cy="505.676" cx="-148.457" transform="rotate(-78.178 -154.516 551.147)" id="path7180" overflow="visible"/><ellipse ry="7.029" rx="4.8" cy="505.676" cx="-148.457" id="path7182" transform="rotate(-78.178 -143.426 551.994)" overflow="visible"/><path d="M-229.744 444.998l-15.318-45.991s-10.854 5.007-11.417-1.796c-.564-6.804 14.998-6.053 14.998-6.053l14.635 53.474z" id="path7184" overflow="visible"/><ellipse ry="7.029" rx="4.8" cy="505.676" cx="-148.457" id="path7186" transform="rotate(101.822 -164.378 427.317)" overflow="visible"/><ellipse ry="7.029" rx="4.8" cy="505.676" cx="-148.457" transform="rotate(101.822 -163.69 418.308)" id="path7188" overflow="visible"/><path d="M-184.683 472.689l45.991-15.318s-5.007-10.854 1.796-11.418c6.804-.563 6.053 14.999 6.053 14.999l-53.474 14.635z" id="path7190" overflow="visible"/><ellipse ry="7.029" rx="4.8" cy="505.676" cx="-148.457" id="path7192" transform="rotate(-168.178 -159.958 482.822)" overflow="visible"/><ellipse ry="7.029" rx="4.8" cy="505.676" cx="-148.457" transform="rotate(-168.178 -154.607 478.23)" id="path7194" overflow="visible"/><path id="path7196" d="M-257.435 490.06l-45.991 15.317s5.007 10.854-1.796 11.417c-6.804.564-6.053-14.998-6.053-14.998l53.474-14.635z" overflow="visible"/><ellipse ry="7.029" rx="4.8" cy="505.676" cx="-148.457" transform="rotate(11.822 -207.074 -108.79)" id="path7198" overflow="visible"/><ellipse ry="7.029" rx="4.8" cy="505.676" cx="-148.457" id="path7200" transform="rotate(11.822 -251.42 -160.475)" overflow="visible"/></g></g><circle r="71.327" cy="490.593" cx="574.464" id="path7202" color="#000" overflow="visible" fill="#ff8e2a" stroke="#ff8e2a" stroke-width="7.64"/><path d="M538.206 436.87c-1.021.042-1.922.296-2.608.859-.38 3.674.916 8.39 3.721 10.97-.242-.314-.534-.883-.936-1.82-1.245-2.117-3.485-11.508.835-6.976 2.533 5.32 3.358 11.814 7.29 16.53 2.997 4.921 8.691 5.24 13.492 6.47 4.168 2.022 5.508 8.009 9.998 9.2 3.196 4.156-.814 9.358-2.557 13.371-3.496 6.194 3.678 9.954 5.949 14.812 4.595 6.342 8.953 14.74 5.493 22.722-2.045 5.774-2.541 12.153-4 18.173-.649 4.27-1.57 13.242 3.038 14.079.923-4.618.558-9.588 4.278-13.068 3.658-6.961 10.787-11.304 16.2-16.226 2.496-2.967 7.334-9.7 12.124-12.992 2.125-3.596 1.489-9.705 5.392-13.27 2.99-3.162 4.475-10.503-1.266-11.374-7.651-3.05-13.946-8.84-19.035-15.392-5.511-2.97-8.972-3.78-14.85-5.671-.358-.116-.85 3.087-1.921 3.076-1.465-.013.338-4.098-2.846-3.977-.533 1.756-3.578 4.533-5.67 5.131-.808-1.318-3.675-4.083-3.468-6.319-.095-4.503-5.847-4.614-3.645-8.897-1.315-3.773-6.6 5.54-8.758-.834-1.276-5.538-1.498-14.92-6.606-15.974-2.463-.975-6.581-2.728-9.644-2.603zm31.617 15.566c.506.159 2.765-.53 5.253-.49 2.344.038 6.256 1.967 6.965 1.351-1.105-3.664-8.9-2.99-8.753-2.973-1.178.99-4.308 1.796-3.465 2.112zm25.663 6.967c-.195.343-1.185.43-1.186-.275.389-.682 1.146-.097 1.186.275zm-4.709-1.36c-4.426-.136-1.516-2.39-3.867-2.34-1.647.035-1.18 1.765-4.036 1.5 2.626 1.236 2.802.931 4.632 1.909 2.596-.154 4.19-.118 3.271-1.068z" id="path7204" font-size="12" fill="#fff" stroke="#fff" stroke-width="1.273"/></g></g></svg>